<svg width="24" height="24" viewBox="0 0 24 24" fill="none" xmlns="http://www.w3.org/2000/svg">
<path fill-rule="evenodd" clip-rule="evenodd" d="M3 4.5C3 3.67157 3.67157 3 4.5 3H7.5C8.32843 3 9 3.67157 9 4.5V19.5C9 20.3284 8.32843 21 7.5 21H4.5C3.67157 21 3 20.3284 3 19.5V4.5ZM7.5 4.5H4.5V19.5H7.5V4.5Z" fill="black"/>
<path fill-rule="evenodd" clip-rule="evenodd" d="M3 7.5C3 7.08579 3.33579 6.75 3.75 6.75H8.25C8.66421 6.75 9 7.08579 9 7.5C9 7.91421 8.66421 8.25 8.25 8.25H3.75C3.33579 8.25 3 7.91421 3 7.5Z" fill="black"/>
<path fill-rule="evenodd" clip-rule="evenodd" d="M7.5 4.5C7.5 3.67157 8.17157 3 9 3H12C12.8284 3 13.5 3.67157 13.5 4.5V19.5C13.5 20.3284 12.8284 21 12 21H9C8.17157 21 7.5 20.3284 7.5 19.5V4.5ZM12 4.5H9V19.5H12V4.5Z" fill="black"/>
<path fill-rule="evenodd" clip-rule="evenodd" d="M7.5 16.5C7.5 16.0858 7.83579 15.75 8.25 15.75H12.75C13.1642 15.75 13.5 16.0858 13.5 16.5C13.5 16.9142 13.1642 17.25 12.75 17.25H8.25C7.83579 17.25 7.5 16.9142 7.5 16.5Z" fill="black"/>
<path fill-rule="evenodd" clip-rule="evenodd" d="M12.2865 5.40208C12.0711 4.59851 12.5479 3.77247 13.3515 3.55708L16.2615 2.77708C17.0651 2.56169 17.8911 3.03851 18.1065 3.84208L22.0065 18.3921C22.2219 19.1957 21.7451 20.0217 20.9415 20.2371L18.0315 21.0171C17.2279 21.2325 16.4019 20.7557 16.1865 19.9521L12.2865 5.40208ZM16.6515 4.23208L13.7415 5.01208L17.6415 19.5621L20.5515 18.7821L16.6515 4.23208Z" fill="black"/>
<path fill-rule="evenodd" clip-rule="evenodd" d="M21.1242 15.433C21.2319 15.833 20.995 16.2446 20.5951 16.3523L16.2451 17.5242C15.8451 17.6319 15.4336 17.395 15.3258 16.9951C15.2181 16.5951 15.4549 16.1836 15.8549 16.0758L20.2049 14.9039C20.6049 14.7962 21.0164 15.0331 21.1242 15.433Z" fill="black"/>
<path fill-rule="evenodd" clip-rule="evenodd" d="M18.7994 6.74387C18.9063 7.14404 18.6686 7.55513 18.2684 7.66208L13.9184 8.82458C13.5183 8.93152 13.1072 8.69381 13.0002 8.29364C12.8933 7.89347 13.131 7.48237 13.5312 7.37543L17.8812 6.21293C18.2813 6.10599 18.6924 6.3437 18.7994 6.74387Z" fill="black"/>
</svg>
