<svg width="24" height="24" viewBox="0 0 24 24" fill="none" xmlns="http://www.w3.org/2000/svg">
<path d="M14.143 11.25L16.191 9.63698C16.519 9.37898 17 9.61298 17 10.03V14.5C17 14.776 16.776 15 16.5 15H7.5C7.224 15 7 14.776 7 14.5V10.03C7 9.61298 7.481 9.37898 7.809 9.63698L9.857 11.25L11.638 9.37998C11.835 9.17298 12.165 9.17298 12.362 9.37998L14.143 11.25V11.25Z" stroke="#323232" stroke-width="1.5" stroke-linecap="round" stroke-linejoin="round"/>
<path d="M18.3639 5.63604C21.8787 9.15076 21.8787 14.8492 18.3639 18.3639C14.8492 21.8787 9.15074 21.8787 5.63604 18.3639C2.12132 14.8492 2.12132 9.15074 5.63604 5.63604C9.15076 2.12132 14.8492 2.12132 18.3639 5.63604" stroke="#323232" stroke-width="1.5" stroke-linecap="round" stroke-linejoin="round"/>
</svg>
