<svg width="24" height="24" viewBox="0 0 24 24" fill="none" xmlns="http://www.w3.org/2000/svg">
<path fill-rule="evenodd" clip-rule="evenodd" d="M11.6471 2.33824C11.8676 2.22059 12.1324 2.22059 12.3529 2.33824L23.6029 8.33824C23.8473 8.46858 24 8.72302 24 9C24 9.27698 23.8473 9.53142 23.6029 9.66176L12.3529 15.6618C12.1324 15.7794 11.8676 15.7794 11.6471 15.6618L0.397059 9.66176C0.152661 9.53142 0 9.27698 0 9C0 8.72302 0.152661 8.46858 0.397059 8.33824L11.6471 2.33824ZM2.34375 9L12 14.15L21.6562 9L12 3.85L2.34375 9Z" fill="black"/>
<path fill-rule="evenodd" clip-rule="evenodd" d="M11.3384 8.64708C11.5333 8.2816 11.9876 8.14334 12.3531 8.33826L17.9781 11.3383C18.2225 11.4686 18.3751 11.723 18.3751 12V22.5C18.3751 22.9142 18.0394 23.25 17.6251 23.25C17.2109 23.25 16.8751 22.9142 16.8751 22.5V12.45L11.6472 9.66179C11.2817 9.46687 11.1435 9.01257 11.3384 8.64708Z" fill="black"/>
<path fill-rule="evenodd" clip-rule="evenodd" d="M3.37501 9.64685C3.78922 9.64685 4.12501 9.98264 4.12501 10.3969V15.5062L4.12665 15.5083L4.12661 15.5084C4.68281 16.2555 7.149 19.125 12 19.125C16.851 19.125 19.3172 16.2555 19.8734 15.5084L19.875 15.5062V10.3969C19.875 9.98264 20.2108 9.64685 20.625 9.64685C21.0392 9.64685 21.375 9.98264 21.375 10.3969V15.5156L21.375 15.5188C21.3736 15.8397 21.2681 16.1515 21.0743 16.4072C20.3702 17.3517 17.5116 20.625 12 20.625C6.48838 20.625 3.62978 17.3517 2.92574 16.4072C2.73193 16.1515 2.62637 15.8397 2.62501 15.5188L2.625 15.5156H2.62501V10.3969C2.62501 9.98264 2.96079 9.64685 3.37501 9.64685Z" fill="black"/>
</svg>
