<svg width="24" height="24" viewBox="0 0 24 24" fill="none" xmlns="http://www.w3.org/2000/svg">
<g clip-path="url(#clip0_267_1361)">
<path d="M5 19.5V7V7C5 5.34315 6.34315 4 8 4H16V4C17.6568 4 19 5.34315 19 7V19.5V19.5C19.0002 19.7762 18.7765 20.0002 18.5004 20.0004C18.3959 20.0005 18.294 19.9678 18.209 19.907L12.291 15.679V15.679C12.117 15.5544 11.883 15.5544 11.709 15.679L5.791 19.906V19.906C5.56645 20.0667 5.25413 20.015 5.09341 19.7904C5.03278 19.7057 5.00013 19.6042 5 19.5H5Z" stroke="#323232" stroke-width="1.5" stroke-linecap="round" stroke-linejoin="round"/>
</g>
<defs>
<clipPath id="clip0_267_1361">
<rect width="24" height="24" fill="white"/>
</clipPath>
</defs>
</svg>
