<svg width="24" height="24" viewBox="0 0 24 24" fill="none" xmlns="http://www.w3.org/2000/svg">
<g clip-path="url(#clip0_266_1009)">
<path d="M16 3V10.74" stroke="#323232" stroke-width="1.5" stroke-linecap="round" stroke-linejoin="round"/>
<path d="M8 10.74V3" stroke="#323232" stroke-width="1.5" stroke-linecap="round" stroke-linejoin="round"/>
<path d="M11.9991 19.326L15.0071 20.907C15.5931 21.215 16.2771 20.717 16.1651 20.065L15.5901 16.716L18.0241 14.345C18.4981 13.883 18.2371 13.078 17.5821 12.983L14.2191 12.494L12.7151 9.44501C12.4221 8.85101 11.5761 8.85101 11.2831 9.44501L9.78012 12.494L6.41712 12.983C5.76212 13.078 5.50112 13.883 5.97512 14.345L8.40912 16.716L7.83412 20.065C7.72212 20.717 8.40612 21.214 8.99212 20.907L12.0001 19.326" stroke="#323232" stroke-width="1.5" stroke-linecap="round" stroke-linejoin="round"/>
<path d="M10.062 11.922L6.005 9.596C5.384 9.24 5 8.578 5 7.861V5C5 3.895 5.895 3 7 3H17C18.105 3 19 3.895 19 5V7.861C19 8.578 18.617 9.24 17.995 9.596L13.938 11.922" stroke="#323232" stroke-width="1.5" stroke-linecap="round" stroke-linejoin="round"/>
</g>
<defs>
<clipPath id="clip0_266_1009">
<rect width="24" height="24" fill="white"/>
</clipPath>
</defs>
</svg>
