<svg xmlns="http://www.w3.org/2000/svg" version="1.1" xmlns:xlink="http://www.w3.org/1999/xlink" xmlns:svgjs="http://svgjs.com/svgjs" width="512" height="512" x="0" y="0" viewBox="0 0 64 64" style="enable-background:new 0 0 512 512" xml:space="preserve" class="hovered-paths"><g><linearGradient id="a" x1="4" x2="60" y1="32.011" y2="32.011" gradientUnits="userSpaceOnUse"><stop stop-opacity="1" stop-color="#ff8181" offset="0.0019305019305019305"></stop><stop stop-opacity="1" stop-color="#ffe03a" offset="1"></stop></linearGradient><path fill="url(#a)" d="M45.59 54.95a2.697 2.697 0 0 1-2.69 2.69H21.66a2.697 2.697 0 0 1-2.69-2.69v-2.07a11.683 11.683 0 0 1 3.94-8.71 13.151 13.151 0 0 1 3-2.07 9.397 9.397 0 0 0 12.73 0c5.077 2.57 7.383 7.298 6.95 12.85zM32.28 27.78a7.417 7.417 0 0 0-7.41 7.4c.349 9.807 14.472 9.804 14.82 0a7.417 7.417 0 0 0-7.41-7.4zm23.54 3.85a7.564 7.564 0 0 1-9.33 1.35 7.014 7.014 0 0 1-1.66-1.35 9.392 9.392 0 0 0-3.15 3.29 10.025 10.025 0 0 0-1.05 5.54 2.196 2.196 0 0 0 2.19 2.19h14.99A2.19 2.19 0 0 0 60 40.46V39a8.802 8.802 0 0 0-4.18-7.37zm-5.5.4c7.294-.23 7.293-10.804 0-11.04-7.297.23-7.294 10.817 0 11.04zm-26.95 8.43V39a8.793 8.793 0 0 0-4.19-7.37 7.49 7.49 0 0 1-10.99 0A8.754 8.754 0 0 0 4 39v1.46a2.19 2.19 0 0 0 2.19 2.19h14.99a2.196 2.196 0 0 0 2.19-2.19zm-9.69-8.43c7.296-.224 7.295-10.811 0-11.04-7.295.237-7.292 10.81 0 11.04zm9.8-16.75 3.39 2.44-1.3 4a1.955 1.955 0 0 0 .72 2.21 1.935 1.935 0 0 0 2.32 0l3.37-2.47 3.41 2.47a1.92 1.92 0 0 0 2.32 0 1.955 1.955 0 0 0 .72-2.21l-1.31-3.97 3.4-2.47a1.982 1.982 0 0 0-1.16-3.57l-4.18.02a870.287 870.287 0 0 1-1.3-4.01 1.987 1.987 0 0 0-3.76.01l-1.27 3.98h-4.21a1.982 1.982 0 0 0-1.16 3.57z" data-original="url(#a)" class="hovered-path"></path></g></svg>