<svg width="24" height="24" viewBox="0 0 24 24" fill="none" xmlns="http://www.w3.org/2000/svg">
<path fill-rule="evenodd" clip-rule="evenodd" d="M16.5002 9C16.7842 9 17.0439 9.1605 17.171 9.41459L22.421 19.9146C22.6062 20.2851 22.4561 20.7356 22.0856 20.9208C21.7151 21.1061 21.2646 20.9559 21.0793 20.5854L16.5002 11.4271L11.921 20.5854C11.7357 20.9559 11.2852 21.1061 10.9148 20.9208C10.5443 20.7356 10.3941 20.2851 10.5793 19.9146L15.8293 9.41459C15.9564 9.1605 16.2161 9 16.5002 9Z" fill="black"/>
<path fill-rule="evenodd" clip-rule="evenodd" d="M12 17.25C12 16.8358 12.3358 16.5 12.75 16.5H20.25C20.6642 16.5 21 16.8358 21 17.25C21 17.6642 20.6642 18 20.25 18H12.75C12.3358 18 12 17.6642 12 17.25Z" fill="black"/>
<path fill-rule="evenodd" clip-rule="evenodd" d="M8.25 2.25C8.66421 2.25 9 2.58579 9 3V5.25C9 5.66421 8.66421 6 8.25 6C7.83579 6 7.5 5.66421 7.5 5.25V3C7.5 2.58579 7.83579 2.25 8.25 2.25Z" fill="black"/>
<path fill-rule="evenodd" clip-rule="evenodd" d="M1.5 5.25C1.5 4.83579 1.83579 4.5 2.25 4.5H14.25C14.6642 4.5 15 4.83579 15 5.25C15 5.66421 14.6642 6 14.25 6H2.25C1.83579 6 1.5 5.66421 1.5 5.25Z" fill="black"/>
<path fill-rule="evenodd" clip-rule="evenodd" d="M11.25 4.5C11.6642 4.5 12 4.83579 12 5.25C12 7.83586 10.9728 10.3158 9.14429 12.1443C7.31581 13.9728 4.83586 15 2.25 15C1.83579 15 1.5 14.6642 1.5 14.25C1.5 13.8358 1.83579 13.5 2.25 13.5C4.43804 13.5 6.53646 12.6308 8.08363 11.0836C9.63081 9.53646 10.5 7.43804 10.5 5.25C10.5 4.83579 10.8358 4.5 11.25 4.5Z" fill="black"/>
<path fill-rule="evenodd" clip-rule="evenodd" d="M5.51583 7.54291C5.90635 7.40484 6.33486 7.6095 6.47294 8.00002C7.04157 9.60837 8.09481 11.0009 9.48763 11.9859C10.8805 12.9709 12.5444 13.4998 14.2503 13.5C14.6645 13.5001 15.0002 13.8359 15.0002 14.2501C15.0002 14.6643 14.6643 15.0001 14.2501 15C12.234 14.9998 10.2676 14.3746 8.62154 13.2106C6.97548 12.0465 5.73075 10.4008 5.05872 8.50002C4.92065 8.1095 5.12531 7.68099 5.51583 7.54291Z" fill="black"/>
</svg>
